<svg xmlns="http://www.w3.org/2000/svg" width="980" height="500" viewBox="0 0 980 500" role="img" aria-labelledby="title desc">
  <title id="title">code2skill repository-to-skill pipeline</title>
  <desc id="desc">A left-to-right pipeline showing repository input, structural analysis, Skill planning, Skill generation, target adaptation, and readiness validation.</desc>
  <defs>
    <marker id="arrow" viewBox="0 0 10 10" refX="9" refY="5" markerWidth="8" markerHeight="8" orient="auto-start-reverse">
      <path d="M 0 0 L 10 5 L 0 10 z" fill="#374151"/>
    </marker>
    <style>
      .title { font: 700 22px Arial, sans-serif; fill: #111827; }
      .subtitle { font: 13px Arial, sans-serif; fill: #4b5563; }
      .stage-title { font: 700 14px Arial, sans-serif; fill: #111827; }
      .stage-text { font: 12px Arial, sans-serif; fill: #374151; }
      .small { font: 11px Arial, sans-serif; fill: #6b7280; }
      .box { fill: #ffffff; stroke: #111827; stroke-width: 1.2; }
      .soft { fill: #f9fafb; stroke: #d1d5db; stroke-width: 1; }
      .accent-a { fill: #e0f2fe; stroke: #0f4c81; stroke-width: 1; }
      .accent-b { fill: #ecfdf5; stroke: #0f766e; stroke-width: 1; }
      .accent-c { fill: #fff7ed; stroke: #b45309; stroke-width: 1; }
      .line { stroke: #374151; stroke-width: 1.4; fill: none; marker-end: url(#arrow); }
      .thin { stroke: #9ca3af; stroke-width: 1; fill: none; }
    </style>
  </defs>

  <rect width="980" height="500" fill="#ffffff"/>
  <text x="42" y="44" class="title">Repository Evidence To Assistant Skills</text>
  <text x="42" y="70" class="subtitle">The LLM sits behind a structural evidence layer: scan files, measure evidence, generate Skills, validate targets.</text>

  <rect x="42" y="112" width="142" height="92" class="box"/>
  <text x="62" y="141" class="stage-title">Python repo</text>
  <text x="62" y="164" class="stage-text">source files</text>
  <text x="62" y="183" class="stage-text">config files</text>
  <text x="62" y="202" class="stage-text">git state</text>

  <path d="M 184 158 H 234" class="line"/>

  <rect x="234" y="104" width="162" height="108" class="accent-a"/>
  <text x="254" y="134" class="stage-title">1. Analyze</text>
  <text x="254" y="157" class="stage-text">AST extraction</text>
  <text x="254" y="176" class="stage-text">routes, calls, types</text>
  <text x="254" y="195" class="stage-text">data-flow, configs</text>

  <path d="M 396 158 H 446" class="line"/>

  <rect x="446" y="104" width="170" height="108" class="accent-b"/>
  <text x="466" y="134" class="stage-title">2. Build graph</text>
  <text x="466" y="157" class="stage-text">imports + symbols</text>
  <text x="466" y="176" class="stage-text">re-export edges</text>
  <text x="466" y="195" class="stage-text">evidence coverage</text>

  <path d="M 616 158 H 666" class="line"/>

  <rect x="666" y="104" width="170" height="108" class="accent-c"/>
  <text x="686" y="134" class="stage-title">3. Plan Skills</text>
  <text x="686" y="157" class="stage-text">blueprint JSON</text>
  <text x="686" y="176" class="stage-text">project summary</text>
  <text x="686" y="195" class="stage-text">skill-plan.json</text>

  <path d="M 751 212 V 260" class="line"/>

  <rect x="646" y="260" width="210" height="102" class="box"/>
  <text x="668" y="290" class="stage-title">4. Generate Skill Markdown</text>
  <text x="668" y="313" class="stage-text">evidence-cited rules</text>
  <text x="668" y="332" class="stage-text">workflow checkpoints</text>
  <text x="668" y="351" class="stage-text">uncertainty kept explicit</text>

  <path d="M 646 311 H 558" class="line"/>

  <rect x="350" y="260" width="208" height="102" class="soft"/>
  <text x="372" y="290" class="stage-title">5. Adapt targets</text>
  <text x="372" y="313" class="stage-text">AGENTS.md, CLAUDE.md</text>
  <text x="372" y="332" class="stage-text">Cursor, Copilot</text>
  <text x="372" y="351" class="stage-text">Windsurf rules</text>

  <path d="M 350 311 H 260" class="line"/>

  <rect x="72" y="260" width="188" height="102" class="soft"/>
  <text x="94" y="290" class="stage-title">6. Validate</text>
  <text x="94" y="313" class="stage-text">doctor readiness</text>
  <text x="94" y="332" class="stage-text">report.json</text>
  <text x="94" y="351" class="stage-text">incremental state</text>

  <path d="M 530 212 V 232 H 166 V 260" class="thin"/>
  <text x="198" y="235" class="small">reverse dependency state powers incremental refresh</text>

  <rect x="42" y="410" width="896" height="42" class="soft"/>
  <text x="64" y="436" class="stage-text">Final product: repository-owned Skill files and target assistant instructions, with structural artifacts available for review and CI.</text>
</svg>
