<svg xmlns="http://www.w3.org/2000/svg" width="880" height="330" viewBox="0 0 880 330" role="img" aria-labelledby="title desc">
<title id="title">Structural evidence extraction benchmark</title>
<desc id="desc">Gold evidence recall for path-only, AST-symbols, and code2skill-semantic extraction.</desc>
<rect width="880" height="330" fill="#ffffff"/>
<text x="36" y="38" font-family="Arial, sans-serif" font-size="24" font-weight="700" fill="#111827">Structural Evidence Extraction</text>
<text x="36" y="62" font-family="Arial, sans-serif" font-size="13" fill="#4b5563">Gold evidence recall before any LLM call. Higher is better.</text>
<line x1="210.0" y1="78" x2="210.0" y2="252" stroke="#eef0f3"/>
<text x="202.0" y="276" font-family="Arial, sans-serif" font-size="11" fill="#6b7280">0.0</text>
<line x1="332.0" y1="78" x2="332.0" y2="252" stroke="#eef0f3"/>
<text x="324.0" y="276" font-family="Arial, sans-serif" font-size="11" fill="#6b7280">0.2</text>
<line x1="454.0" y1="78" x2="454.0" y2="252" stroke="#eef0f3"/>
<text x="446.0" y="276" font-family="Arial, sans-serif" font-size="11" fill="#6b7280">0.4</text>
<line x1="576.0" y1="78" x2="576.0" y2="252" stroke="#eef0f3"/>
<text x="568.0" y="276" font-family="Arial, sans-serif" font-size="11" fill="#6b7280">0.6</text>
<line x1="698.0" y1="78" x2="698.0" y2="252" stroke="#eef0f3"/>
<text x="690.0" y="276" font-family="Arial, sans-serif" font-size="11" fill="#6b7280">0.8</text>
<line x1="820.0" y1="78" x2="820.0" y2="252" stroke="#eef0f3"/>
<text x="812.0" y="276" font-family="Arial, sans-serif" font-size="11" fill="#6b7280">1.0</text>
<text x="36" y="111" font-family="Arial, sans-serif" font-size="14" font-weight="700" fill="#111827">Path-only baseline</text>
<rect x="210" y="88" width="27.1" height="34" rx="4" fill="#8a8f98"/>
<text x="247.1" y="111" font-family="Arial, sans-serif" font-size="13" fill="#111827">0.044 (2/45)</text>
<text x="36" y="163" font-family="Arial, sans-serif" font-size="14" font-weight="700" fill="#111827">AST symbols baseline</text>
<rect x="210" y="140" width="216.9" height="34" rx="4" fill="#3f6d8f"/>
<text x="436.9" y="163" font-family="Arial, sans-serif" font-size="13" fill="#111827">0.356 (16/45)</text>
<text x="36" y="215" font-family="Arial, sans-serif" font-size="14" font-weight="700" fill="#111827">code2skill semantic</text>
<rect x="210" y="192" width="610.0" height="34" rx="4" fill="#198754"/>
<text x="830.0" y="215" font-family="Arial, sans-serif" font-size="13" fill="#111827">1.000 (45/45)</text>
<text x="36" y="314" font-family="Arial, sans-serif" font-size="12" fill="#6b7280">code2skill captures routes, calls, type references, data-flow, dynamic imports, re-exported symbols, exceptions, and dependency edges.</text>
</svg>